# xmcd
#
# Track frame offsets:
# 150
# 14295
# 31313
# 45690
# 62764
# 79216
# 96610
# 108458
# 121272
# 134622
# 154999
#
# Disc length: 2245 seconds
#
#
# Revision: 0
# Processed by: cddbd v1.5.2PL0 Copyright (c) Steve Scherf et al.
# Submitted via: FreeRIP 2.91 
#
DISCID=9708c30b
DTITLE=Grey - Sonria Usted
DYEAR=1900
DGENRE=
TTITLE0=Mala mujer
TTITLE1=Blues
TTITLE2=Ser normal
TTITLE3=The Chucho Killer
TTITLE4=Siempre
TTITLE5=Me perdones
TTITLE6=Yo no
TTITLE7=De vuelta
TTITLE8=En el bolsillo
TTITLE9=El hombre sin cinto y sin reloj
TTITLE10=El ultimo mono
EXTD=
EXTT0=
EXTT1=
EXTT2=
EXTT3=
EXTT4=
EXTT5=
EXTT6=
EXTT7=
EXTT8=
EXTT9=
EXTT10=
PLAYORDER=
